<svg width="14" height="14" viewBox="0 0 14 14" fill="none" xmlns="http://www.w3.org/2000/svg">
<path fill-rule="evenodd" clip-rule="evenodd" d="M1.5974 8.60005H4.90512C5.78587 8.60005 6.50252 9.3167 6.50252 10.1975V12.4026C6.50252 13.2834 5.78587 14 4.90512 14H1.5974C0.716646 14 0 13.2834 0 12.4026V10.1975C0 9.3167 0.716646 8.60005 1.5974 8.60005ZM4.90512 13.0103C5.24027 13.0103 5.51285 12.7378 5.51285 12.4026V10.1975C5.51285 9.8623 5.24027 9.58972 4.90512 9.58972H1.5974C1.26225 9.58972 0.989667 9.8623 0.989667 10.1975V12.4026C0.989667 12.7378 1.26225 13.0103 1.5974 13.0103H4.90512ZM9.09488 0H12.4026C13.2834 0 14 0.716646 14 1.5974V3.80255C14 4.6833 13.2834 5.39995 12.4026 5.39995H9.09488C8.21413 5.39995 7.49748 4.6833 7.49748 3.80255V1.5974C7.49748 0.716646 8.21413 0 9.09488 0ZM12.4026 4.41028C12.7378 4.41028 13.0103 4.1377 13.0103 3.80255V1.5974C13.0103 1.26225 12.7378 0.989667 12.4026 0.989667H9.09488C8.75973 0.989667 8.48715 1.26225 8.48715 1.5974V3.80255C8.48715 4.1377 8.75973 4.41028 9.09488 4.41028H12.4026ZM9.09488 6.39491H12.4026C13.2834 6.39491 14 7.11155 14 7.99231V12.4026C14 13.2834 13.2834 14 12.4026 14H9.09488C8.21413 14 7.49748 13.2834 7.49748 12.4026V7.99231C7.49748 7.11155 8.21413 6.39491 9.09488 6.39491ZM12.4026 13.0103C12.7378 13.0103 13.0103 12.7378 13.0103 12.4026V7.99231C13.0103 7.65716 12.7378 7.38458 12.4026 7.38458H9.09488C8.75973 7.38458 8.48715 7.65716 8.48715 7.99231V12.4026C8.48715 12.7378 8.75973 13.0103 9.09488 13.0103H12.4026ZM1.5974 0H4.90512C5.78587 0 6.50252 0.716646 6.50252 1.5974V6.00769C6.50252 6.88845 5.78587 7.60509 4.90512 7.60509H1.5974C0.716646 7.60509 0 6.88845 0 6.00769V1.5974C0 0.716646 0.716646 0 1.5974 0ZM4.90512 6.61542C5.24027 6.61542 5.51285 6.34284 5.51285 6.00769V1.5974C5.51285 1.26225 5.24027 0.989667 4.90512 0.989667H1.5974C1.26225 0.989667 0.989667 1.26225 0.989667 1.5974V6.00769C0.989667 6.34284 1.26225 6.61542 1.5974 6.61542H4.90512Z" fill="white"/>
</svg>
