<svg width="14" height="14" viewBox="0 0 14 14" fill="none" xmlns="http://www.w3.org/2000/svg">
<g clip-path="url(#clip0_199_136)">
<path d="M12.6861 2.96536L7.69709 0.182532C7.26042 -0.0605997 6.73934 -0.0610879 6.30267 0.182532L1.31392 2.96536C0.848954 3.2246 0.559998 3.72063 0.559998 4.26059V9.73935C0.559998 10.2793 0.848954 10.7753 1.31392 11.0346L6.30291 13.8174C6.52112 13.939 6.76044 14 7 14C7.23932 14 7.47887 13.939 7.69733 13.8174L12.6861 11.0346C13.151 10.7753 13.44 10.2793 13.44 9.73935V4.26059C13.44 3.72063 13.151 3.2246 12.6861 2.96536ZM12.4578 9.73935C12.4578 9.91364 12.3645 10.0738 12.2142 10.1577L7.22565 12.9406C7.08417 13.0187 6.91559 13.0187 6.77459 12.9406L1.78584 10.1577C1.63549 10.0738 1.54221 9.91364 1.54221 9.73935V4.26059C1.54221 4.0863 1.63549 3.92617 1.78584 3.84219L6.77435 1.05937C6.84509 1.02031 6.92254 1.00029 7 1.00029C7.07745 1.00029 7.15491 1.02031 7.22541 1.05937L12.2142 3.84219C12.3645 3.92617 12.4578 4.0863 12.4578 4.26059V9.73935Z" fill="white"/>
<path d="M10.7635 4.26082L7 6.35109L3.2365 4.26082C3.00235 4.12955 2.70797 4.21818 2.57967 4.45533C2.45114 4.69296 2.53714 4.99095 2.77152 5.12127L6.51613 7.20126V11.2694C6.51613 11.5406 6.73279 11.76 7 11.76C7.26722 11.76 7.48388 11.5406 7.48388 11.2694V7.20126L11.2285 5.12127C11.4629 4.99095 11.5489 4.69296 11.4203 4.45533C11.2923 4.21818 10.9977 4.12955 10.7635 4.26082Z" fill="white"/>
</g>
<defs>
<clipPath id="clip0_199_136">
<rect width="14" height="14" fill="white"/>
</clipPath>
</defs>
</svg>
