<svg width="36" height="24" viewBox="0 0 36 24" fill="none" xmlns="http://www.w3.org/2000/svg">
<path fill-rule="evenodd" clip-rule="evenodd" d="M20.2381 0.299528L31.9723 5.88671C32.5145 6.14489 32.5229 6.87895 31.9868 7.14839L16.7468 14.808C15.8971 15.235 14.8833 15.2457 14.0239 14.8365L4.45531 10.2804C3.28961 9.83445 1.9862 10.649 1.9862 11.8758C1.9862 12.8622 2.57142 13.7639 3.49786 14.2051L13.0911 18.7728C13.6767 18.205 14.4921 17.8528 15.3939 17.8528C16.27 17.8528 17.0644 18.1852 17.6459 18.7246L29.5947 12.7192C29.5619 12.5437 29.5449 12.3629 29.5449 12.1784C29.5449 10.4809 30.9899 9.10477 32.7724 9.10477C34.555 9.10477 36 10.4809 36 12.1784C36 13.8759 34.555 15.2519 32.7724 15.2519C31.9008 15.2519 31.11 14.923 30.5292 14.3883L18.5738 20.3971C18.6051 20.569 18.6215 20.7459 18.6215 20.9264C18.6215 22.6239 17.1765 24 15.3939 24C13.6113 24 12.1663 22.6239 12.1663 20.9264C12.1663 20.7694 12.1787 20.6152 12.2025 20.4644L2.47037 15.8306C0.956366 15.1097 0 13.6361 0 12.0241V11.1263C0 9.89857 0.713497 8.77178 1.85363 8.19885L17.5151 0.328019C18.3648 -0.0990583 19.3787 -0.109667 20.2381 0.299528ZM15.3939 22.1086C16.0794 22.1086 16.6352 21.5793 16.6352 20.9264C16.6352 20.2736 16.0794 19.7443 15.3939 19.7443C14.7083 19.7443 14.1526 20.2736 14.1526 20.9264C14.1526 21.5793 14.7083 22.1086 15.3939 22.1086ZM34.0138 12.1784C34.0138 12.8313 33.458 13.3606 32.7724 13.3606C32.0869 13.3606 31.5311 12.8313 31.5311 12.1784C31.5311 11.5255 32.0869 10.9962 32.7724 10.9962C33.458 10.9962 34.0138 11.5255 34.0138 12.1784Z" fill="#556C8D"/>
</svg>
