<svg width="14" height="14" viewBox="0 0 14 14" fill="none" xmlns="http://www.w3.org/2000/svg">
<g clip-path="url(#clip0_274_449)">
<path d="M6.93656 7.57094L9.56156 9.53969C9.75494 9.68472 10.029 9.64556 10.1741 9.45219C10.3191 9.25881 10.2799 8.98472 10.0866 8.83969L7.65625 7V3.28125C7.65625 3.03953 7.46047 2.84375 7.21875 2.84375C6.97703 2.84375 6.78125 3.03953 6.78125 3.28125V7.21875C6.78125 7.364 6.84206 7.49481 6.93656 7.57094Z" fill="white"/>
<path d="M7.43754 0.4375C4.23525 0.4375 1.50066 2.74881 0.96691 5.90625L0.80066 5.65906C0.665254 5.45847 0.393129 5.40553 0.192535 5.54094C-0.00805889 5.67634 -0.0609964 5.94847 0.0744099 6.14906L0.94941 7.46156C1.02138 7.57094 1.13863 7.64247 1.26879 7.65625H1.31253C1.42847 7.65581 1.53938 7.60944 1.62097 7.52719L2.71472 6.43344C2.88557 6.26259 2.88557 5.98522 2.71472 5.81438C2.54388 5.64353 2.2665 5.64353 2.09566 5.81438L1.82441 6.08781C2.32819 2.98725 5.25004 0.882438 8.35038 1.38622C11.4507 1.89 13.556 4.81162 13.0522 7.91219C12.6048 10.6654 10.2268 12.6879 7.43754 12.6875C5.67835 12.7194 4.01454 11.8895 2.9816 10.465C2.84138 10.2681 2.56816 10.222 2.37129 10.3622C2.17441 10.5024 2.12825 10.7756 2.26847 10.9725C3.4646 12.6289 5.39485 13.596 7.43754 13.5625C11.062 13.5625 14 10.6245 14 7C14 3.37553 11.062 0.4375 7.43754 0.4375Z" fill="white"/>
</g>
<defs>
<clipPath id="clip0_274_449">
<rect width="14" height="14" fill="white"/>
</clipPath>
</defs>
</svg>
