<svg width="42" height="32" viewBox="0 0 42 32" fill="none" xmlns="http://www.w3.org/2000/svg">
<g clip-path="url(#clip0_161_487)">
<path d="M40.7384 1.26929C39.9255 0.450368 38.8437 0 37.6921 0C36.5414 0 35.4588 0.450368 34.6443 1.26929L15.4375 20.5821L7.35725 12.4576C6.54356 11.6395 5.46098 11.1883 4.3102 11.1883C3.15942 11.1883 2.07683 11.6395 1.26315 12.4576C0.448688 13.2765 0 14.3643 0 15.5221C0 16.68 0.448688 17.7677 1.26237 18.5859L12.3889 29.7734C13.2034 30.5923 14.2852 31.0427 15.436 31.0427C16.5867 31.0427 17.6709 30.5915 18.4838 29.7734L40.7376 7.39757C41.5521 6.57943 42 5.49091 42 4.33382C42 3.17673 41.5521 2.08821 40.7384 1.27007V1.26929Z" fill="#6BC8F2"/>
</g>
<defs>
<clipPath id="clip0_161_487">
<rect width="42" height="31.0435" fill="white"/>
</clipPath>
</defs>
</svg>
