<svg width="30" height="30" viewBox="0 0 30 30" fill="none" xmlns="http://www.w3.org/2000/svg">
<path d="M27.2232 21.3263C27.8215 21.5744 28.5068 21.2897 28.7544 20.6923C29.5031 18.886 29.8828 16.9709 29.8828 15C29.8828 6.77376 23.2235 0.121078 15 0.121078C11.4981 0.121078 7.9953 1.34491 5.16769 3.83446V1.17188C5.16769 0.524597 4.64287 0 3.99582 0C3.34854 0 2.82394 0.524597 2.82394 1.17188V6.76186C2.7887 7.43111 3.33023 7.99759 3.99582 7.99759H9.65126C10.2985 7.99759 10.8231 7.47299 10.8231 6.82571C10.8231 6.17844 10.2985 5.65384 9.65126 5.65384H6.64627C8.86986 3.66737 11.7792 2.46483 15 2.46483C21.931 2.46483 27.5391 8.0722 27.5391 15C27.5391 16.6612 27.2195 18.2746 26.5892 19.7948C26.3416 20.3929 26.6251 21.0784 27.2232 21.3263ZM1.24557 9.30771C1.49345 8.70964 2.17896 8.42606 2.77679 8.67371C3.37486 8.92159 3.65845 9.60732 3.4108 10.2052C2.78046 11.7254 2.46094 13.3388 2.46094 15C2.46094 21.9278 8.069 27.5352 15 27.5352C18.2208 27.5352 21.1301 26.3326 23.3537 24.3462H20.3487C19.7015 24.3462 19.1769 23.8213 19.1769 23.1743C19.1769 22.527 19.7015 22.0024 20.3487 22.0024H26.0042C26.6684 22.0024 27.2115 22.5636 27.1761 23.2381V28.8281C27.1761 29.4754 26.6515 30 26.0042 30C25.3571 30 24.8323 29.4754 24.8323 28.8281V26.1655C22.0047 28.6551 18.5019 29.8789 15 29.8789C6.7765 29.8789 0.117188 23.2262 0.117188 15C0.117188 13.0291 0.496902 11.114 1.24557 9.30771Z" fill="#556C8D"/>
</svg>
