<svg width="14" height="14" viewBox="0 0 14 14" fill="none" xmlns="http://www.w3.org/2000/svg">
<path fill-rule="evenodd" clip-rule="evenodd" d="M13.7349 6.57274L13.7355 6.57304C13.8139 6.61333 13.8797 6.67442 13.9256 6.74962C13.9717 6.825 13.9961 6.91164 13.9961 7C13.9961 7.08835 13.9717 7.17499 13.9256 7.25038C13.8797 7.32558 13.8139 7.38667 13.7355 7.42695L13.7349 7.42725L11.336 8.63048L13.7349 9.8337L13.7356 9.83402C13.8139 9.87431 13.8797 9.93539 13.9256 10.0106C13.9717 10.086 13.9961 10.1726 13.9961 10.261C13.9961 10.3493 13.9717 10.4359 13.9256 10.5113C13.8797 10.5865 13.8139 10.6476 13.7356 10.6879L13.7349 10.6882L7.21456 13.9484L7.21408 13.9486C7.14707 13.9824 7.07309 14 6.99806 14C6.92302 14 6.84904 13.9824 6.78203 13.9486L0.26117 10.6882L0.260503 10.6879C0.182163 10.6476 0.116415 10.5865 0.0704642 10.5113C0.024383 10.4359 0 10.3493 0 10.261C0 10.1726 0.0243832 10.086 0.0704642 10.0106C0.11642 9.9354 0.182179 9.87432 0.260533 9.83403L0.26117 9.8337L2.66015 8.63048L0.26117 7.42725L0.260578 7.42695C0.182205 7.38666 0.116429 7.32557 0.0704642 7.25038C0.0243831 7.17499 0 7.08835 0 7C0 6.91164 0.0243832 6.825 0.0704642 6.74962C0.116429 6.67442 0.182205 6.61334 0.260578 6.57305L0.26117 6.57274L2.66015 5.36952L0.26117 4.16629L0.260556 4.16598C0.182193 4.12569 0.116425 4.06461 0.0704642 3.98942C0.0243831 3.91403 0 3.82739 0 3.73904C0 3.65069 0.0243831 3.56405 0.0704642 3.48866C0.116411 3.4135 0.182152 3.35243 0.260484 3.31214L0.26117 3.31179L6.78155 0.0515924L6.78203 0.0513509C6.84904 0.0175862 6.92302 0 6.99806 0C7.07309 0 7.14707 0.0175862 7.21408 0.0513516L13.7362 3.31241C13.8152 3.3523 13.8818 3.4133 13.9283 3.48865C13.9748 3.56392 13.9996 3.65057 14 3.73904C13.9996 3.82751 13.9748 3.91416 13.9283 3.98943C13.8817 4.06483 13.8151 4.12588 13.736 4.16577L11.336 5.36952L13.7349 6.57274ZM6.99806 12.9839L12.4439 10.261L10.2591 9.16852L7.2147 10.6874L7.21408 10.6877C7.14707 10.7215 7.07309 10.739 6.99806 10.739C6.92302 10.739 6.84904 10.7215 6.78203 10.6877L3.73703 9.16852L1.55218 10.261L6.99806 12.9839ZM6.99806 9.72295L12.4439 7L10.2591 5.90757L7.2147 7.42642L7.21408 7.42673C7.14708 7.46049 7.07309 7.47808 6.99806 7.47808C6.92302 7.47808 6.84904 7.46049 6.78203 7.42673L3.73703 5.90757L1.55218 7L6.99806 9.72295ZM1.55218 3.73904L6.99806 6.46199L12.4439 3.73904L6.99806 1.01609L1.55218 3.73904Z" fill="white"/>
</svg>
