<svg width="20" height="20" viewBox="0 0 20 20" fill="none" xmlns="http://www.w3.org/2000/svg">
<g clip-path="url(#clip0_15_98)">
<path d="M4.76171 7.33203C7.41014 5.3125 7.40624 4.5 7.51952 4.35547C5.75389 2.73438 4.3203 0.722657 3.33202 0.0976566C3.02733 -0.0898434 2.62889 0.00390663 2.44139 0.3125C1.21093 2.32031 1.46093 6.21484 2.65233 9.16406C3.31639 8.43359 4.06249 7.86719 4.76171 7.33203Z" fill="url(#paint0_linear_15_98)"/>
<path d="M15.2383 7.33203C15.9375 7.86719 16.6836 8.43359 17.3438 9.16406C18.5391 6.21484 18.7891 2.31641 17.5547 0.308593C17.3672 0.00390511 16.9688 -0.0937511 16.668 0.0976551C15.6758 0.722655 14.2422 2.73437 12.4805 4.35547C12.6172 4.53125 12.5859 5.30859 15.2383 7.33203Z" fill="url(#paint1_linear_15_98)"/>
<path d="M7.84766 16.3477C7.85156 16.3555 7.85938 16.3594 7.85938 16.3672C8.01172 16.6094 8.19531 16.8086 8.39844 16.9766C8.57812 16.457 9.1875 16.1133 10 16.1133C10.8164 16.1133 11.4219 16.457 11.6016 16.9844C11.8125 16.8125 12 16.6016 12.1523 16.3516C13.4961 14.2148 15.8945 12.6367 18.6719 12.375C17.4219 8.09766 13.582 7.73047 12.1484 4.66016H7.85156C6.41016 7.73047 2.57422 8.09766 1.32812 12.375C4.10547 12.6328 6.50391 14.207 7.84766 16.3477ZM12.2188 12.0859C12.3945 11.7656 12.793 11.4492 13.3008 11.2773C13.4141 11.2383 13.582 11.1953 13.7422 11.1875C13.8906 11.1797 14.0352 11.1992 14.1133 11.2773C14.1914 11.3555 14.0703 11.4688 14.0586 11.5625C14.0312 11.7539 14.1055 12.1133 13.9102 12.3477C13.5 12.8398 12.6211 12.6992 12.3398 12.7031C12.1094 12.707 12.1289 12.6992 12.1211 12.4414C12.1172 12.3281 12.1523 12.207 12.2188 12.0859ZM6.08984 12.3477C5.89453 12.1133 5.96875 11.7539 5.94141 11.5625C5.92969 11.4727 5.80859 11.3594 5.88672 11.2773C5.96484 11.1992 6.10938 11.1797 6.25781 11.1875C6.41406 11.1953 6.58203 11.2383 6.69922 11.2773C7.20312 11.4492 7.60156 11.7656 7.78125 12.0859C7.84766 12.207 7.88281 12.3281 7.87891 12.4414C7.87109 12.6953 7.89063 12.707 7.66016 12.7031C7.37891 12.6992 6.50391 12.8398 6.08984 12.3477Z" fill="url(#paint2_linear_15_98)"/>
<path d="M18.9023 13.3516C18.8672 13.1562 18.8281 12.9688 18.7851 12.7852L18.7148 12.793C16.168 13.0352 13.8476 14.4492 12.5117 16.5742C12.2187 17.0625 11.8789 17.3398 11.6367 17.4883C11.5195 18.0664 10.8516 18.9648 9.99999 18.9648C9.14062 18.9648 8.46484 18.0508 8.35937 17.4727C8.12499 17.3164 7.78515 17.0391 7.5039 16.5938C7.46484 16.5586 5.66796 13.207 1.28905 12.793L1.21874 12.7852C1.17577 12.9688 1.1328 13.1562 1.09765 13.3516C0.82421 14.9141 2.06249 15.4375 3.41405 15.8906C4.78124 16.3398 5.92577 17.2578 6.76952 18.4219C7.54687 19.4922 8.60546 20.0586 9.99999 20C13.3516 20.1484 13.0117 17.0742 16.5859 15.8945C17.9414 15.4375 19.1797 14.9141 18.9023 13.3516Z" fill="url(#paint3_linear_15_98)"/>
<path d="M8.76562 17.3164C8.76562 17.6641 9.31641 18.5352 10 18.5352C10.6836 18.5352 11.2344 17.6602 11.2344 17.3164C11.2344 16.2734 8.76562 16.2734 8.76562 17.3164Z" fill="url(#paint4_linear_15_98)"/>
</g>
<defs>
<linearGradient id="paint0_linear_15_98" x1="4.07877" y1="3.17881" x2="8.10869" y2="6.21496" gradientUnits="userSpaceOnUse">
<stop offset="0.016" stop-color="#6BC8F2"/>
<stop offset="0.1644" stop-color="#66C4F0"/>
<stop offset="0.3822" stop-color="#5BB6E7"/>
<stop offset="0.6426" stop-color="#489FD8"/>
<stop offset="0.9338" stop-color="#2E80C4"/>
<stop offset="1" stop-color="#2778BE"/>
</linearGradient>
<linearGradient id="paint1_linear_15_98" x1="14.9283" y1="3.17757" x2="18.9587" y2="6.21289" gradientUnits="userSpaceOnUse">
<stop offset="0.016" stop-color="#6BC8F2"/>
<stop offset="0.1644" stop-color="#66C4F0"/>
<stop offset="0.3822" stop-color="#5BB6E7"/>
<stop offset="0.6426" stop-color="#489FD8"/>
<stop offset="0.9338" stop-color="#2E80C4"/>
<stop offset="1" stop-color="#2778BE"/>
</linearGradient>
<linearGradient id="paint2_linear_15_98" x1="8.53854" y1="8.93402" x2="13.5381" y2="17.1816" gradientUnits="userSpaceOnUse">
<stop offset="0.016" stop-color="#6BC8F2"/>
<stop offset="0.1644" stop-color="#66C4F0"/>
<stop offset="0.3822" stop-color="#5BB6E7"/>
<stop offset="0.6426" stop-color="#489FD8"/>
<stop offset="0.9338" stop-color="#2E80C4"/>
<stop offset="1" stop-color="#2778BE"/>
</linearGradient>
<linearGradient id="paint3_linear_15_98" x1="8.49368" y1="15.289" x2="10.5281" y2="21.1955" gradientUnits="userSpaceOnUse">
<stop offset="0.016" stop-color="#6BC8F2"/>
<stop offset="0.1644" stop-color="#66C4F0"/>
<stop offset="0.3822" stop-color="#5BB6E7"/>
<stop offset="0.6426" stop-color="#489FD8"/>
<stop offset="0.9338" stop-color="#2E80C4"/>
<stop offset="1" stop-color="#2778BE"/>
</linearGradient>
<linearGradient id="paint4_linear_15_98" x1="9.79197" y1="17.2281" x2="10.6486" y2="18.467" gradientUnits="userSpaceOnUse">
<stop offset="0.016" stop-color="#6BC8F2"/>
<stop offset="0.1644" stop-color="#66C4F0"/>
<stop offset="0.3822" stop-color="#5BB6E7"/>
<stop offset="0.6426" stop-color="#489FD8"/>
<stop offset="0.9338" stop-color="#2E80C4"/>
<stop offset="1" stop-color="#2778BE"/>
</linearGradient>
<clipPath id="clip0_15_98">
<rect width="20" height="20" fill="white"/>
</clipPath>
</defs>
</svg>
