<svg width="24" height="24" viewBox="0 0 24 24" fill="none" xmlns="http://www.w3.org/2000/svg">
<circle cx="12" cy="12" r="12" fill="white"/>
<path d="M20 12C20 14.2091 19.1045 16.2084 17.6569 17.6569C16.2092 19.1053 14.2091 20 12 20C9.79092 20 7.7916 19.1045 6.34313 17.6569C4.89466 16.2092 4 14.2091 4 12C4 9.79092 4.89546 7.7916 6.34313 6.34313C7.79079 4.89466 9.79092 4 12 4C14.2091 4 16.2084 4.89546 17.6569 6.34313C19.1053 7.79079 20 9.79092 20 12Z" fill="#00264C"/>
<path d="M10.6847 8.43178C10.7268 8.75804 10.7816 8.98075 10.834 9.13209L12.0013 7.96446L13.0176 8.98075C13.0375 8.93893 13.0538 8.8981 13.0607 8.86126C13.0727 8.7992 13.0836 8.73779 13.0943 8.67772C13.1158 8.5579 13.1431 8.40755 13.1849 8.24824L12.226 7.28938C12.1069 7.17022 11.8954 7.17022 11.7763 7.28938L10.6767 8.38897C10.6794 8.40357 10.6827 8.41751 10.6847 8.43178Z" fill="white"/>
<path d="M9.99429 14.0246L7.9677 11.998L9.69658 10.2695C9.56813 10.0869 9.46922 9.88346 9.39355 9.67303L7.29328 11.7733C7.23353 11.833 7.20001 11.9137 7.20001 11.9983C7.20001 12.0826 7.23353 12.1636 7.29328 12.2234L9.63285 14.5629C9.73773 14.3595 9.86618 14.1779 9.99429 14.0246Z" fill="white"/>
<path d="M13.084 14.9493L12.0013 16.032L11.0902 15.1209C11.0156 15.2248 10.9581 15.329 10.9415 15.4157C10.9306 15.4734 10.9067 15.6065 10.9067 15.6065C10.8964 15.6646 10.8844 15.7306 10.8702 15.8007L11.7763 16.7068C11.836 16.7665 11.9167 16.8 12.0013 16.8C12.0856 16.8 12.1666 16.7665 12.2263 16.7068L13.2884 15.6447C13.2244 15.2627 13.1437 15.0569 13.084 14.9493Z" fill="white"/>
<path d="M16.7097 11.7733L14.4584 9.52203C14.3721 9.73445 14.2559 9.92729 14.1318 10.0949L16.0349 11.998L14.1822 13.8507C14.3263 14.0153 14.4394 14.2042 14.5281 14.4043L16.7093 12.223C16.8338 12.0989 16.8338 11.8975 16.7097 11.7733Z" fill="white"/>
<path d="M15.878 16.7562H14.859C14.3067 16.7562 13.8364 16.34 13.7654 15.7877C13.6688 15.0396 13.4833 14.5869 13.2141 14.4419C12.9788 14.3151 12.7153 14.2242 12.4358 14.1276C11.8958 13.941 11.3369 13.7482 10.9177 13.2706C10.4003 12.6811 10.3661 11.8225 10.8364 11.2291C10.9452 11.0913 11.1454 11.0681 11.2831 11.1773C11.4209 11.2865 11.4441 11.4863 11.3349 11.624C11.0511 11.9825 11.076 12.487 11.3956 12.8511C11.7036 13.2022 12.1603 13.3596 12.6433 13.5265C12.934 13.6271 13.2347 13.7306 13.5155 13.882C14.1368 14.2165 14.3157 15.0834 14.396 15.7064C14.4266 15.9421 14.6254 16.12 14.8587 16.12H15.8776C16.0044 16.12 16.1076 16.0168 16.1076 15.89V15.8644C16.1076 15.7376 16.0044 15.6344 15.8776 15.6344H15.2165C15.0409 15.6344 14.8985 15.492 14.8985 15.3164C14.8985 15.1409 15.0409 14.9985 15.2165 14.9985H15.8776C16.3552 14.9985 16.7436 15.3871 16.7436 15.8644V15.89C16.7439 16.3679 16.3556 16.7562 15.878 16.7562Z" fill="url(#paint0_linear_37_98)"/>
<path d="M13.0584 13.1643C12.9996 13.1643 12.9399 13.1481 12.8868 13.1139C12.7391 13.019 12.6959 12.8222 12.7909 12.6745C13.0464 12.2762 12.9844 11.8563 12.607 11.4262C12.299 11.075 11.8423 10.9174 11.359 10.7508C11.0683 10.6505 10.7676 10.5466 10.4868 10.3956C9.86515 10.0607 9.68659 9.19381 9.6066 8.57083C9.57606 8.33518 9.37726 8.15729 9.14393 8.15729H8.12466C7.99787 8.15729 7.89465 8.26051 7.89465 8.38729V8.41285C7.89465 8.53964 7.99787 8.64286 8.12466 8.64286H8.78581C8.96138 8.64286 9.10377 8.78524 9.10377 8.96082C9.10377 9.13639 8.96138 9.27878 8.78581 9.27878H8.12466C7.64705 9.27878 7.25873 8.89012 7.25873 8.41285V8.38729C7.25873 7.90969 7.64705 7.52136 8.12466 7.52136H9.14393C9.69621 7.52136 10.1665 7.93757 10.2375 8.48985C10.3338 9.23796 10.5193 9.69067 10.7885 9.83571C11.0238 9.9625 11.2873 10.0534 11.5665 10.1497C12.1068 10.3362 12.6657 10.5291 13.0849 11.007C13.6558 11.6572 13.7414 12.3718 13.3266 13.0186C13.2658 13.1126 13.1629 13.1643 13.0584 13.1643Z" fill="url(#paint1_linear_37_98)"/>
<path d="M9.52296 16.7562H8.12466C7.64705 16.7562 7.25873 16.3675 7.25873 15.8902V15.8235C7.25873 15.3459 7.64705 14.9576 8.12466 14.9576H8.78581C8.96138 14.9576 9.10377 15.1 9.10377 15.2756C9.10377 15.4511 8.96138 15.5935 8.78581 15.5935H8.12466C7.99787 15.5935 7.89465 15.6967 7.89465 15.8235V15.8902C7.89465 16.017 7.99787 16.1203 8.12466 16.1203H9.52296C9.669 16.1203 9.72774 16.0276 9.83727 15.415C9.84922 15.3486 9.86117 15.2809 9.87411 15.2122C9.97866 14.6649 10.4208 14.1992 10.675 13.9702C10.8054 13.8524 11.0069 13.8633 11.1241 13.9938C11.2415 14.1242 11.2309 14.3253 11.1005 14.4428C10.7739 14.7369 10.5489 15.0688 10.4991 15.331C10.4865 15.397 10.4749 15.4624 10.4632 15.5265C10.3657 16.0744 10.2438 16.7562 9.52296 16.7562Z" fill="url(#paint2_linear_37_98)"/>
<path d="M13.1152 10.3887C13.0282 10.3887 12.9416 10.3532 12.8785 10.2835C12.761 10.1531 12.7716 9.95196 12.9021 9.83447C13.229 9.54007 13.4537 9.20817 13.5035 8.9463C13.5161 8.87959 13.5277 8.81421 13.5393 8.75015C13.6372 8.20251 13.759 7.52112 14.4796 7.52112H15.8779C16.3555 7.52112 16.7438 7.90977 16.7438 8.38705V8.45376C16.7438 8.93137 16.3555 9.31969 15.8779 9.31969H15.2168C15.0412 9.31969 14.8988 9.17731 14.8988 9.00173C14.8988 8.82615 15.0412 8.68377 15.2168 8.68377H15.8779C16.0047 8.68377 16.1079 8.58055 16.1079 8.45376V8.38705C16.1079 8.26026 16.0047 8.15704 15.8779 8.15704H14.4796C14.3339 8.15704 14.2748 8.24964 14.1653 8.86167C14.1533 8.92838 14.1411 8.99609 14.1281 9.06512C14.0239 9.61177 13.5818 10.0778 13.3276 10.3068C13.2668 10.3619 13.1908 10.3887 13.1152 10.3887Z" fill="url(#paint3_linear_37_98)"/>
<defs>
<linearGradient id="paint0_linear_37_98" x1="12.3932" y1="13.4991" x2="16.5171" y2="16.8408" gradientUnits="userSpaceOnUse">
<stop offset="0.0107" stop-color="#6BC8F2"/>
<stop offset="0.1599" stop-color="#66C4F0"/>
<stop offset="0.3788" stop-color="#5BB6E7"/>
<stop offset="0.6406" stop-color="#489FD8"/>
<stop offset="0.9334" stop-color="#2E80C4"/>
<stop offset="1" stop-color="#2778BE"/>
</linearGradient>
<linearGradient id="paint1_linear_37_98" x1="9.88902" y1="9.47827" x2="12.3775" y2="12.7489" gradientUnits="userSpaceOnUse">
<stop offset="0.016" stop-color="#6BC8F2"/>
<stop offset="0.1644" stop-color="#66C4F0"/>
<stop offset="0.3822" stop-color="#5BB6E7"/>
<stop offset="0.6426" stop-color="#489FD8"/>
<stop offset="0.9338" stop-color="#2E80C4"/>
<stop offset="1" stop-color="#2778BE"/>
</linearGradient>
<linearGradient id="paint2_linear_37_98" x1="8.61091" y1="16.0539" x2="10.4595" y2="14.3001" gradientUnits="userSpaceOnUse">
<stop offset="0.0107" stop-color="#6BC8F2"/>
<stop offset="0.1599" stop-color="#66C4F0"/>
<stop offset="0.3788" stop-color="#5BB6E7"/>
<stop offset="0.6406" stop-color="#489FD8"/>
<stop offset="0.9334" stop-color="#2E80C4"/>
<stop offset="1" stop-color="#2778BE"/>
</linearGradient>
<linearGradient id="paint3_linear_37_98" x1="12.7272" y1="9.24748" x2="16.2567" y2="8.23904" gradientUnits="userSpaceOnUse">
<stop offset="0.0267" stop-color="#6BC8F2"/>
<stop offset="0.1735" stop-color="#66C4F0"/>
<stop offset="0.3889" stop-color="#5BB6E7"/>
<stop offset="0.6465" stop-color="#489FD8"/>
<stop offset="0.9345" stop-color="#2E80C4"/>
<stop offset="1" stop-color="#2778BE"/>
</linearGradient>
</defs>
</svg>
